<?xml version="1.0" encoding="iso-8859-1"?>
<!-- Generator: Adobe Illustrator 19.0.0, SVG Export Plug-In . SVG Version: 6.00 Build 0)  -->
<!-- License: CC0. Made by SVG Repo: https://www.svgrepo.com/svg/234636/sunglasses -->
<svg version="1.1" id="Layer_1" xmlns="http://www.w3.org/2000/svg" xmlns:xlink="http://www.w3.org/1999/xlink" x="0px" y="0px"
	 viewBox="0 0 511.998 511.998" style="enable-background:new 0 0 511.998 511.998;" xml:space="preserve">
<g>
	<path style="fill:#FF6361;" d="M139.634,186.833c14.39,0.033,28.674,2.496,42.818,4.926c13.363,2.296,26.56,4.939,39.716,7.791
		c26.294,5.726,52.353,12.391,78.285,19.991c25.91,7.704,51.686,16.27,77.239,26.794c12.779,5.265,25.508,10.98,38.16,17.558
		c12.644,6.643,25.233,14.044,37.636,23.433l0.161,0.122c12.736,9.641,15.244,27.78,5.603,40.515
		c-9.641,12.735-27.78,15.244-40.519,5.6c-9.974-7.555-19.251-15.482-29.917-22.145c-10.324-6.45-21.283-12.466-32.524-18.165
		c-22.5-11.42-46.231-21.466-70.323-30.737c-24.144-9.188-48.742-17.587-73.585-25.077c-12.418-3.733-24.903-7.269-37.378-10.435
		c-12.048-3.005-24.022-5.439-36.279-7.379c-9.274-1.469-16.713-8.562-15.368-18.589
		C124.464,192.789,131.528,186.804,139.634,186.833z"/>
	<path style="fill:#FF6361;" d="M372.359,186.833c-14.39,0.033-28.674,2.496-42.818,4.926c-13.363,2.296-26.56,4.939-39.716,7.791
		c-26.294,5.726-52.353,12.391-78.285,19.991c-25.91,7.704-51.686,16.27-77.239,26.794c-12.777,5.265-25.508,10.98-38.16,17.558
		c-12.644,6.643-25.233,14.044-37.636,23.433l-0.161,0.122c-12.735,9.641-15.244,27.78-5.602,40.515
		c9.641,12.735,27.78,15.244,40.519,5.6c9.974-7.555,19.251-15.482,29.917-22.145c10.324-6.45,21.283-12.466,32.524-18.165
		c22.5-11.42,46.231-21.466,70.323-30.737c24.144-9.188,48.742-17.587,73.584-25.077c12.418-3.733,24.903-7.269,37.378-10.435
		c12.048-3.005,24.022-5.439,36.279-7.379c9.274-1.469,16.713-8.562,15.368-18.589C387.53,192.789,380.465,186.804,372.359,186.833z
		"/>
</g>
<path style="opacity:0.3;enable-background:new    ;" d="M372.359,186.833c-14.39,0.033-28.674,2.496-42.818,4.926
	c-13.363,2.296-26.56,4.939-39.716,7.791c-26.294,5.726-52.353,12.391-78.285,19.991c-25.91,7.704-51.686,16.27-77.239,26.794
	c-12.777,5.265-25.508,10.98-38.16,17.558c-12.644,6.643-25.233,14.044-37.636,23.433l-0.161,0.122
	c-12.735,9.641-15.244,27.78-5.602,40.515c9.641,12.735,27.78,15.244,40.519,5.6c9.974-7.555,19.251-15.482,29.917-22.145
	c10.324-6.45,21.283-12.466,32.524-18.165c22.5-11.42,46.231-21.466,70.323-30.737c24.144-9.188,48.742-17.587,73.584-25.077
	c12.418-3.733,24.903-7.269,37.378-10.435c12.048-3.005,24.022-5.439,36.279-7.379c9.274-1.469,16.713-8.562,15.368-18.589
	C387.53,192.789,380.465,186.804,372.359,186.833z"/>
<path style="fill:#FF6361;" d="M482.151,172.57H29.849C13.363,172.57,0,185.933,0,202.418c0,16.486,13.363,29.849,29.849,29.849
	h15.103l2.878,16.416c5.108,29.133,30.409,50.384,59.986,50.384h63.627c29.577,0,54.879-21.251,59.986-50.384l5.375-30.657
	c12.613-3.048,25.775-3.049,38.388,0l5.375,30.657c5.108,29.133,30.409,50.384,59.986,50.384h63.627
	c29.577,0,54.879-21.251,59.986-50.384l2.878-16.416h15.103c16.485,0,29.849-13.363,29.849-29.849
	C512,185.933,498.636,172.57,482.151,172.57z"/>
<path style="opacity:0.15;enable-background:new    ;" d="M178.757,288.03H115.13c-29.577,0-54.879-21.251-59.986-50.384
	l-2.878-16.416H37.162c-16.763,0-30.3-13.82-29.837-30.687c0.094-3.441,0.79-6.721,1.974-9.76C3.575,186.22,0,193.899,0,202.419
	c0,16.485,13.363,29.848,29.849,29.848h15.103l2.878,16.416c5.108,29.133,30.409,50.384,59.986,50.384h63.627
	c23.285,0,43.913-13.176,54.13-32.995C214.315,279.594,197.387,288.03,178.757,288.03z M411.495,288.03h-63.627
	c-29.577,0-54.879-21.252-59.986-50.385l-4.236-20.962c-0.985-5.623-5.537-9.97-11.21-10.606c-6.967-0.781-16.7-0.836-23.747-0.163
	c-6.337,0.605-11.266,5.734-11.662,12.062c12.545-2.995,25.628-2.981,38.167,0.049l5.375,30.657
	c5.108,29.133,30.409,50.384,59.986,50.384h63.627c23.285,0,43.913-13.177,54.13-32.996
	C447.054,279.593,430.126,288.03,411.495,288.03z"/>
<circle style="fill:#FFB547;" cx="29.449" cy="202.424" r="9.084"/>
<path style="fill:#333E48;" d="M107.818,271.637c-16.292,0-30.156-11.645-32.971-27.691l-5.472-31.212
	c-0.759-4.338,1.165-7.413,2.381-8.861c1.216-1.447,3.912-3.875,8.316-3.875H199.19c4.404,0,7.1,2.428,8.315,3.875
	c1.216,1.447,3.141,4.522,2.382,8.861l-5.473,31.212c-2.813,16.046-16.679,27.691-32.97,27.691H107.818z"/>
<g style="opacity:0.1;">
	<path d="M187.902,254.083h-63.627c-16.292,0-30.156-11.645-32.971-27.691l-4.628-26.394h-6.605c-4.404,0-7.101,2.428-8.316,3.875
		c-1.215,1.447-3.14,4.522-2.381,8.861l5.472,31.212c2.813,16.046,16.679,27.691,32.971,27.691h63.627
		c13.876,0,25.986-8.452,31.012-20.873C198.038,252.896,193.094,254.083,187.902,254.083z"/>
</g>
<circle style="fill:#FFB547;" cx="482.551" cy="202.424" r="9.084"/>
<path style="fill:#333E48;" d="M404.182,271.637c16.292,0,30.156-11.645,32.971-27.691l5.472-31.212
	c0.759-4.338-1.166-7.413-2.381-8.861c-1.216-1.447-3.912-3.875-8.316-3.875H312.81c-4.404,0-7.1,2.428-8.315,3.875
	c-1.216,1.447-3.141,4.522-2.382,8.861l5.473,31.212c2.813,16.046,16.679,27.691,32.97,27.691H404.182z"/>
<g style="opacity:0.1;">
	<path d="M420.641,254.083h-63.627c-16.292,0-30.156-11.645-32.971-27.691l-4.627-26.394h-6.605c-4.404,0-7.101,2.428-8.316,3.875
		c-1.215,1.447-3.14,4.522-2.381,8.861l5.472,31.212c2.813,16.046,16.679,27.691,32.971,27.691h63.627
		c13.876,0,25.986-8.452,31.012-20.873C430.775,252.896,425.833,254.083,420.641,254.083z"/>
</g>
</svg>
