<?xml version="1.0" encoding="iso-8859-1"?>
<!-- Generator: Adobe Illustrator 18.0.0, SVG Export Plug-In . SVG Version: 6.00 Build 0)  -->
<!DOCTYPE svg PUBLIC "-//W3C//DTD SVG 1.1//EN" "http://www.w3.org/Graphics/SVG/1.1/DTD/svg11.dtd">
<!-- License: CC0. Made by SVG Repo: https://www.svgrepo.com/svg/54738/sunglasses -->
<svg version="1.1" id="Capa_1" xmlns="http://www.w3.org/2000/svg" xmlns:xlink="http://www.w3.org/1999/xlink" x="0px" y="0px"
	 viewBox="0 0 120.395 120.395" style="enable-background:new 0 0 120.395 120.395;" xml:space="preserve">
<g>
	<g>
		<path style="fill-rule:evenodd;clip-rule:evenodd;fill:#FC5A29;" d="M3.432,42.895c19.809-0.424,89.555,5.327,100.251,7.768
			c10.696,2.441,11.886,15.616,11.886,20.987c0,5.373-6.339,6.88-6.339-2.211c0-9.093-0.791-14.018-7.131-14.577
			c-6.339-0.559-91.933-5.226-97.875-5.388C-1.718,49.311-0.529,42.649,3.432,42.895z"/>
		<path style="fill-rule:evenodd;clip-rule:evenodd;fill:#FC5A29;" d="M116.995,42.895c-19.81-0.424-89.554,5.327-100.252,7.768
			C6.047,53.104,4.857,66.278,4.857,71.65c0,5.373,6.34,6.88,6.34-2.211c0-9.093,0.792-14.018,7.131-14.577
			c6.338-0.559,91.931-5.226,97.875-5.388C122.144,49.311,120.957,42.649,116.995,42.895z"/>
		<path style="fill-rule:evenodd;clip-rule:evenodd;fill:#F9AF46;" d="M90.775,80.164c0.658-0.009,1.336-0.038,2.037-0.091
			c15.965-1.206,19.674-7.85,21.197-16.25c1.672-9.223,1.695-12.436,4.239-13.284c1.866-0.622,2.261-2.684,2.12-5.087
			c-0.142-2.402-0.233-2.66-3.392-3.674c-2.473-0.794-16.02-1.958-26.202-1.411v2.488c7.995-0.369,15.723,0.542,18.006,1.891
			c5.24,3.092,4.225,17.943,0.142,25.294c-2.874,5.172-10.916,7.761-18.147,7.783V80.164z M60.083,45.17
			c-3.53,0.078-18.099-3.817-28.402-4.664c-0.667-0.055-1.357-0.1-2.06-0.139v2.488c8.312,0.385,16.92,2.157,20.006,6.271
			c5.087,6.784-3.109,23.317-10.881,26.991c-2.432,1.149-5.688,1.718-9.125,1.707v2.342c14.086,0.203,18.95-9.14,20.57-12.245
			c3.023-5.795,2.094-13.784,10.006-13.784s7.124,7.848,10.147,13.642c1.619,3.104,6.355,12.576,20.431,12.385v-2.341
			c-3.44,0.011-6.696-0.558-9.126-1.707c-7.772-3.674-15.968-20.207-10.881-26.991c3.086-4.114,11.691-5.886,20.007-6.271v-2.488
			c-0.705,0.038-1.393,0.083-2.061,0.139C79.493,41.265,68.392,44.987,60.083,45.17z M29.621,40.367
			C19.437,39.821,5.89,40.985,3.418,41.779c-3.16,1.014-3.25,1.271-3.392,3.674c-0.142,2.403,0.253,4.465,2.119,5.087
			c2.544,0.848,2.567,4.061,4.24,13.284c1.523,8.4,5.231,15.044,21.196,16.25c0.7,0.053,1.379,0.083,2.039,0.092v-2.342
			c-7.233-0.022-15.275-2.611-18.148-7.783c-4.084-7.351-5.098-22.202,0.141-25.294c2.284-1.348,10.01-2.26,18.008-1.891V40.367z"/>
		<path style="fill-rule:evenodd;clip-rule:evenodd;fill:#76DECB;" d="M11.613,44.746c4.659-2.749,31.959-3.691,38.014,4.38
			c5.087,6.784-3.109,23.317-10.881,26.991c-7.543,3.565-23.034,1.555-27.273-6.076C7.388,62.689,6.375,47.838,11.613,44.746
			L11.613,44.746z M108.781,44.746c-4.657-2.749-31.96-3.691-38.013,4.38c-5.087,6.784,3.108,23.317,10.881,26.991
			c7.542,3.565,23.033,1.555,27.273-6.076C113.006,62.689,114.021,47.838,108.781,44.746z"/>
	</g>
	<g>
		<path style="fill-rule:evenodd;clip-rule:evenodd;fill:#D9FFF8;" d="M72.145,65.397l36.101-20.917
			c0.202,0.086,0.382,0.176,0.535,0.266c1.949,1.15,3.032,3.93,3.415,7.344l-35.21,20.399C75.16,70.518,73.477,68.039,72.145,65.397
			z"/>
		<path style="fill-rule:evenodd;clip-rule:evenodd;fill:#D9FFF8;" d="M69.637,58.489l27.066-15.681
			c2.778,0.083,5.343,0.311,7.433,0.642L70.929,62.689C70.378,61.286,69.936,59.871,69.637,58.489z"/>
		<path style="fill-rule:evenodd;clip-rule:evenodd;fill:#D9FFF8;" d="M79.94,75.11l32.391-18.767
			c-0.067,1.744-0.271,3.541-0.596,5.293L84.866,77.204c-1.174-0.273-2.26-0.635-3.217-1.088
			C81.08,75.847,80.508,75.508,79.94,75.11z"/>
	</g>
	<g>
		<path style="fill-rule:evenodd;clip-rule:evenodd;fill:#D9FFF8;" d="M9.222,64.173l33.307-19.298
			c3.143,0.992,5.692,2.379,7.097,4.251c0.266,0.353,0.492,0.735,0.687,1.137L12.871,71.956c-0.547-0.594-1.019-1.232-1.398-1.916
			C10.556,68.39,9.794,66.361,9.222,64.173z"/>
		<path style="fill-rule:evenodd;clip-rule:evenodd;fill:#D9FFF8;" d="M8.07,56.48l23.334-13.52
			c2.393,0.168,4.774,0.457,7.008,0.889L8.57,61.138C8.306,59.591,8.136,58.016,8.07,56.48z"/>
		<path style="fill-rule:evenodd;clip-rule:evenodd;fill:#D9FFF8;" d="M16.026,74.459l35.163-20.373
			c0.066,1.659-0.173,3.47-0.651,5.326L20.934,76.564C19.161,76.031,17.491,75.33,16.026,74.459z"/>
	</g>
</g>
</svg>
