<?xml version="1.0" encoding="iso-8859-1"?>
<!-- Generator: Adobe Illustrator 19.0.0, SVG Export Plug-In . SVG Version: 6.00 Build 0)  -->
<!-- License: CC0. Made by SVG Repo: https://www.svgrepo.com/svg/244312/sunglasses -->
<svg version="1.1" id="Layer_1" xmlns="http://www.w3.org/2000/svg" xmlns:xlink="http://www.w3.org/1999/xlink" x="0px" y="0px"
	 viewBox="0 0 512.001 512.001" style="enable-background:new 0 0 512.001 512.001;" xml:space="preserve">
<g>
	<g>
		<path d="M474.844,161.666c-18.238-9.183-42.797-13.615-77.089-13.889c-0.092-0.002-0.182-0.014-0.275-0.014H117.674
			c-36.093,0-61.678,4.418-80.519,13.903C12.501,174.079,0,195.149,0,224.291c0,30.921,8.811,64.649,23.568,90.223
			c18.502,32.064,45.363,49.723,75.635,49.723c30.641,0,64.292-15.57,92.326-42.719c25.778-24.963,41.794-55.435,43.641-82.576
			c3.394-8.501,11.595-14.129,20.833-14.129c9.232,0,17.43,5.621,20.826,14.111c1.841,27.147,17.859,57.626,43.642,82.594
			c28.035,27.149,61.686,42.719,92.326,42.719c30.272,0,57.133-17.659,75.635-49.723c14.757-25.574,23.568-59.302,23.568-90.223
			C512,195.149,499.499,174.079,474.844,161.666z M394.326,168.662c45.274,0,73.204,7.425,86.785,23.948H313.663
			C334.171,172.542,369.858,168.662,394.326,168.662z M117.674,168.662c24.469,0,60.157,3.88,80.663,23.948H30.887
			C44.472,176.087,72.399,168.662,117.674,168.662z M176.991,306.506c-23.816,23.064-52.897,36.833-77.789,36.833
			c-12.873,0-24.229-4.393-34.017-11.757h18.586c5.77,0,10.449-4.678,10.449-10.448c0-5.771-4.678-10.45-10.449-10.45L45.9,310.683
			c-3.837-5.704-7.241-11.922-10.209-18.459h154.343C186.098,297.119,181.742,301.906,176.991,306.506z M203.907,271.327H27.951
			c-1.802-6.107-3.259-12.304-4.375-18.46h187.941C209.742,258.942,207.182,265.14,203.907,271.327z M21.108,231.968
			c-0.138-2.6-0.21-5.164-0.21-7.677c0-3.809,0.285-7.397,0.846-10.783h189.649c1.811,5.477,2.875,11.606,3.03,18.46H21.108z
			 M256.004,203.915c-8.591,0-16.719,2.522-23.574,6.964c-4.713-17.335-15.072-31.668-30.639-42.217H310.21
			c-15.567,10.549-25.926,24.88-30.638,42.214C272.719,206.435,264.593,203.915,256.004,203.915z M412.798,343.339
			c-13.69,0-28.646-4.172-43.298-11.757h32.704c5.77,0,10.449-4.679,10.449-10.449s-4.678-10.449-10.449-10.449l-62.713-0.001
			c-1.512-1.356-3.008-2.748-4.484-4.177c-4.751-4.601-9.106-9.387-13.042-14.282h154.341
			C463.323,320.827,441.95,343.339,412.798,343.339z M484.048,271.327H308.092c-3.274-6.186-5.834-12.383-7.61-18.46h187.941
			C487.308,259.022,485.85,265.218,484.048,271.327z M490.891,231.967H297.575c0.156-6.855,1.219-12.983,3.031-18.46h189.648
			c0.561,3.388,0.846,6.976,0.846,10.783C491.101,226.803,491.029,229.368,490.891,231.967z"/>
	</g>
</g>
<g>
	<g>
		<path d="M440.687,310.684h-4.678c-5.769,0-10.449,4.678-10.449,10.449c0,5.771,4.68,10.449,10.449,10.449h4.678
			c5.77,0,10.449-4.678,10.449-10.449C451.136,315.362,446.457,310.684,440.687,310.684z"/>
	</g>
</g>
<g>
	<g>
		<path d="M122.253,310.684h-4.678c-5.77,0-10.449,4.678-10.449,10.449c0,5.771,4.679,10.449,10.449,10.449h4.678
			c5.77,0,10.449-4.678,10.449-10.449C132.702,315.362,128.023,310.684,122.253,310.684z"/>
	</g>
</g>
</svg>
